<svg width="1200" height="800" xmlns="http://www.w3.org/2000/svg">
  <defs>
    <linearGradient id="grad5" x1="0%" y1="0%" x2="100%" y2="100%">
      <stop offset="0%" style="stop-color:#667eea;stop-opacity:1" />
      <stop offset="50%" style="stop-color:#764ba2;stop-opacity:1" />
      <stop offset="100%" style="stop-color:#f093fb;stop-opacity:1" />
    </linearGradient>
  </defs>
  <rect width="100%" height="100%" fill="url(#grad5)"/>
  
  <!-- Monitor frames -->
  <rect x="100" y="150" width="300" height="200" fill="rgba(255,255,255,0.95)" rx="8"/>
  <rect x="450" y="150" width="300" height="200" fill="rgba(255,255,255,0.95)" rx="8"/>
  <rect x="800" y="150" width="300" height="200" fill="rgba(255,255,255,0.95)" rx="8"/>
  
  <!-- Screen content indicators -->
  <rect x="120" y="170" width="80" height="4" fill="#667eea" rx="2"/>
  <rect x="120" y="190" width="120" height="4" fill="#764ba2" rx="2"/>
  <rect x="120" y="210" width="60" height="4" fill="#f093fb" rx="2"/>
  
  <rect x="470" y="170" width="100" height="4" fill="#667eea" rx="2"/>
  <rect x="470" y="190" width="80" height="4" fill="#764ba2" rx="2"/>
  <rect x="470" y="210" width="90" height="4" fill="#f093fb" rx="2"/>
  
  <rect x="820" y="170" width="110" height="4" fill="#667eea" rx="2"/>
  <rect x="820" y="190" width="70" height="4" fill="#764ba2" rx="2"/>
  <rect x="820" y="210" width="85" height="4" fill="#f093fb" rx="2"/>
  
  <!-- Floating elements -->
  <circle cx="200" cy="450" r="30" fill="rgba(255,255,255,0.8)"/>
  <circle cx="600" cy="500" r="25" fill="rgba(255,255,255,0.6)"/>
  <circle cx="1000" cy="450" r="35" fill="rgba(255,255,255,0.7)"/>
  
  <text x="50%" y="90%" font-family="Arial, sans-serif" font-size="48" font-weight="bold" fill="white" text-anchor="middle">
    Digital Projects Portfolio
  </text>
  <rect x="20" y="20" width="1160" height="760" fill="none" stroke="white" stroke-width="3" rx="15"/>
</svg>
